HIERARCHY
ROOT Hips
{
	OFFSET 0.000000 0.000000 0.000000 
	CHANNELS 6 Xposition Yposition Zposition Zrotation Yrotation Xrotation
	JOINT LeftUpLeg
	{
		OFFSET 1.363060 -1.794630 0.839290 
		CHANNELS 3 Zrotation Yrotation Xrotation
		JOINT LeftLeg
		{
			OFFSET 2.448110 -6.726130 0.000000 
			CHANNELS 3 Zrotation Yrotation Xrotation
			JOINT LeftFoot
			{
				OFFSET 2.562200 -7.039590 0.000000 
				CHANNELS 3 Zrotation Yrotation Xrotation
				JOINT LeftToeBase
				{
					OFFSET 0.157640 -0.433110 2.322550 
					CHANNELS 3 Zrotation Yrotation Xrotation
					End Site
					{
						OFFSET 0.000000 0.000000 0.000000 
					}
				}
			}
		}
	}
	JOINT RightUpLeg
	{
		OFFSET -1.305520 -1.794630 0.839290 
		CHANNELS 3 Zrotation Yrotation Xrotation
		JOINT RightLeg
		{
			OFFSET -2.542530 -6.985550 0.000000 
			CHANNELS 3 Zrotation Yrotation Xrotation
			JOINT RightFoot
			{
				OFFSET -2.568260 -7.056230 0.000000 
				CHANNELS 3 Zrotation Yrotation Xrotation
				JOINT RightToeBase
				{
					OFFSET -0.164730 -0.452590 2.363150 
					CHANNELS 3 Zrotation Yrotation Xrotation
					End Site
					{
						OFFSET 0.000000 0.000000 0.000000 
					}
				}
			}
		}
	}
	JOINT Spine
	{
		OFFSET 0.028270 2.035590 -0.193380 
		CHANNELS 3 Zrotation Yrotation Xrotation
		JOINT Spine1
		{
			OFFSET 0.056720 2.048850 -0.042750 
			CHANNELS 3 Zrotation Yrotation Xrotation
			JOINT Neck1
			{
				OFFSET -0.054170 1.746240 0.172020 
				CHANNELS 3 Zrotation Yrotation Xrotation
				JOINT Head
				{
					OFFSET 0.104070 1.761360 -0.123970 
					CHANNELS 3 Zrotation Yrotation Xrotation
					End Site
					{
						OFFSET 0.000000 0.000000 0.000000 
					}
				}
			}
			JOINT LeftArm
			{
				OFFSET 3.362410 1.200890 -0.311210 
				CHANNELS 3 Zrotation Yrotation Xrotation
				JOINT LeftForeArm
				{
					OFFSET 4.983000 -0.000000 -0.000000 
					CHANNELS 3 Zrotation Yrotation Xrotation
					JOINT LeftHand
					{
						OFFSET 3.483560 -0.000000 -0.000000 
						CHANNELS 3 Zrotation Yrotation Xrotation
						JOINT LeftHandIndex1
						{
							OFFSET 0.715260 -0.000000 -0.000000 
							CHANNELS 3 Zrotation Yrotation Xrotation
							End Site
							{
								OFFSET 0.000000 0.000000 0.000000 
							}
						}
					}
				}
			}
			JOINT RightArm
			{
				OFFSET -3.136600 1.374050 -0.404650 
				CHANNELS 3 Zrotation Yrotation Xrotation
				JOINT RightForeArm
				{
					OFFSET -5.241900 -0.000000 -0.000000 
					CHANNELS 3 Zrotation Yrotation Xrotation
					JOINT RightHand
					{
						OFFSET -3.444170 -0.000000 -0.000000 
						CHANNELS 3 Zrotation Yrotation Xrotation
						JOINT RightHandIndex1
						{
							OFFSET -0.622530 -0.000000 -0.000000 
							CHANNELS 3 Zrotation Yrotation Xrotation
							End Site
							{
								OFFSET 0.000000 0.000000 0.000000 
							}
						}
					}
				}
			}
		}
	}
}
MOTION
Frames: 9
Frame Time: 0.041667
-8.233184 17.802102 -0.195313 -129.922863 88.200807 -113.431272 -2.681207 -2.989791 -31.053296 0.687610 10.037082 27.230949 1.556847 -4.390935 1.722966 2.799700 -10.363600 -30.162200 1.109411 4.768802 -29.991282 -2.442298 -9.616788 29.026231 1.881473 -9.297871 -0.927022 -0.426100 4.189100 -11.609400 4.198700 2.745765 3.614999 5.442501 1.444010 0.033148 0.188937 -2.574330 28.395443 -2.212500 -0.090600 15.261900 -108.574408 -20.618684 79.728142 12.826538 -22.923228 -1.519929 0.014823 0.845759 -42.026230 -7.125000 0.000000 0.000000 103.375762 24.121518 34.524959 -9.620603 18.793170 -1.587919 -0.262400 -0.051539 -37.134819 7.125000 0.000000 0.000000 
-8.231869 17.802304 -0.194403 -130.317368 88.182233 -113.817834 -2.702619 -2.976608 -31.099585 0.697034 10.056231 27.280562 1.551842 -4.367611 1.634587 2.879000 -10.496500 -30.600100 1.126514 4.733999 -30.000058 -2.436079 -9.608618 29.006206 1.892864 -9.335344 -1.145915 -0.706900 5.373600 -14.977200 4.220407 2.750542 3.654873 5.462633 1.446160 0.104653 0.210197 -2.577486 28.434551 -2.197100 -0.092000 15.295900 -108.497394 -20.706216 79.747390 12.875674 -22.995733 -1.535934 0.004923 0.845543 -42.159239 -7.125000 0.000000 0.000000 103.323155 24.113955 34.763977 -9.664601 18.875399 -1.605047 -0.258054 -0.058428 -37.834252 7.125000 0.000000 0.000000 
-8.231667 17.806957 -0.193695 -130.795898 88.170941 -114.286756 -2.628291 -3.089702 -31.062869 0.716747 10.086665 27.375709 1.613418 -4.679486 1.772151 2.581900 -9.985400 -28.929300 1.124200 4.719798 -29.971266 -2.424784 -9.588420 28.938604 1.911331 -9.410086 -1.083038 -0.696100 5.333500 -14.862200 4.232976 2.756862 3.690580 5.478285 1.448968 0.171160 0.226832 -2.597939 28.492105 -2.186700 -0.099000 15.339600 -108.415477 -20.798716 79.790512 12.925390 -23.068451 -1.552826 0.009494 0.844986 -42.355267 -7.125000 0.000000 0.000000 103.318059 24.131314 34.835445 -9.690757 18.927921 -1.617038 -0.250922 -0.059837 -38.240845 7.125000 0.000000 0.000000 
-8.231970 17.811609 -0.192380 -130.756529 88.175854 -114.273452 -2.543913 -3.186950 -30.949298 0.730912 10.101863 27.436250 1.673545 -4.978909 1.897553 2.289500 -9.444800 -27.196900 1.123780 4.736452 -29.923920 -2.422318 -9.587284 28.925378 1.922127 -9.456756 -1.043186 -0.668100 5.227000 -14.557200 4.237506 2.759761 3.698634 5.484253 1.449667 0.170469 0.263947 -2.589754 28.506546 -2.158700 -0.095800 15.338800 -108.386988 -20.862151 79.811421 12.939472 -23.088181 -1.558981 0.029704 0.843761 -42.536291 -7.125000 0.000000 0.000000 103.338435 24.154382 34.656465 -9.654942 18.876997 -1.609994 -0.242442 -0.059771 -37.951404 7.125000 0.000000 0.000000 
-8.232172 17.809081 -0.192177 -130.950082 88.187542 -114.499357 -2.600077 -3.120422 -30.932544 0.733278 10.108502 27.471050 1.662336 -4.970521 2.261925 2.081800 -9.034500 -25.903300 1.092437 4.764574 -29.874204 -2.422089 -9.589567 28.930424 1.912490 -9.416424 -1.079587 -0.649600 5.155600 -14.352900 4.230874 2.736378 3.735699 5.482988 1.437433 0.207637 0.265022 -2.544448 28.519726 -2.148000 -0.079100 15.345300 -108.343344 -20.981189 79.823269 12.931395 -23.076427 -1.555958 0.030326 0.845264 -42.834685 -7.125000 0.000000 0.000000 103.348678 24.177345 34.730876 -9.630822 18.836497 -1.603154 -0.239195 -0.055381 -37.779962 7.125000 0.000000 0.000000 
-8.232273 17.803720 -0.192784 -131.573994 88.217724 -115.133938 -2.710293 -3.044660 -30.968014 0.717003 10.095956 27.455375 1.613607 -4.837360 3.282860 1.490600 -7.712900 -21.845300 1.039292 4.764675 -29.868040 -2.427816 -9.595299 28.951193 1.918238 -9.438757 -1.082813 -0.684400 5.289400 -14.735800 4.184739 2.748363 3.763119 5.453698 1.442867 0.241704 0.235370 -2.571413 28.596080 -2.172200 -0.083500 15.400300 -108.309066 -21.110818 79.851162 12.885727 -23.005275 -1.535010 0.023412 0.847572 -43.041833 -7.125000 0.000000 0.000000 103.383202 24.209617 34.806571 -9.625512 18.831381 -1.603654 -0.233354 -0.053187 -37.778261 7.125000 0.000000 0.000000 
-8.232678 17.802607 -0.192987 -131.732753 88.214547 -115.320451 -2.777065 -2.969526 -31.028583 0.697752 10.074568 27.405556 1.588284 -4.769590 4.114265 0.987000 -6.323400 -17.725600 1.044565 4.747742 -29.864906 -2.436079 -9.606884 28.987428 1.935711 -9.510539 -1.093729 -0.725100 5.441000 -15.170700 4.176051 2.777901 3.779882 5.434656 1.457330 0.243578 0.246232 -2.608926 28.662737 -2.169500 -0.094400 15.445100 -108.324326 -21.176632 79.846944 12.858811 -22.955818 -1.517636 0.024998 0.844905 -42.892792 -7.125000 0.000000 0.000000 103.404440 24.269580 34.639695 -9.626317 18.851513 -1.610743 -0.222865 -0.063160 -37.847660 7.125000 0.000000 0.000000 
-8.233184 17.803113 -0.192582 -131.682192 88.161699 -115.289062 -2.773690 -2.918829 -31.066063 0.683808 10.052874 27.341282 1.586260 -4.759757 4.349548 0.893400 -6.024300 -16.855000 1.066824 4.790129 -29.838471 -2.441183 -9.617797 29.025020 1.932756 -9.496742 -1.197613 -0.669200 5.231400 -14.569800 4.214249 2.775011 3.805932 5.437349 1.456893 0.266017 0.236740 -2.602860 28.690480 -2.168000 -0.095900 15.470000 -108.323716 -21.234848 79.876980 12.881239 -22.983980 -1.521732 0.023830 0.841355 -42.827216 -7.125000 0.000000 0.000000 103.354495 24.321104 34.602970 -9.658888 18.924833 -1.626918 -0.215547 -0.078770 -37.933749 7.125000 0.000000 0.000000 
-8.233184 17.801798 -0.192784 -131.791231 88.135595 -115.399836 -2.751862 -2.935179 -31.036254 0.671866 10.032552 27.277874 1.572336 -4.679097 4.352021 0.960400 -6.240000 -17.482300 1.049007 4.839738 -29.817062 -2.438717 -9.621171 29.053123 1.837514 -9.101261 -1.387241 -0.108500 2.124200 -5.849000 4.185161 2.805315 3.814615 5.379257 1.472762 0.276177 0.212060 -2.659695 28.699458 -2.196000 -0.114300 15.478600 -108.254170 -21.282696 80.105093 12.912583 -23.035969 -1.535380 0.023986 0.841303 -42.936578 -7.125000 0.000000 0.000000 103.290338 24.312542 34.867903 -9.747289 19.078059 -1.656194 -0.214702 -0.086448 -38.232932 7.125000 0.000000 0.000000 
